<?xml version="1.0" standalone="no"?>
<!DOCTYPE svg PUBLIC "-//W3C//DTD SVG 20010904//EN"
 "http://www.w3.org/TR/2001/REC-SVG-20010904/DTD/svg10.dtd">
<svg version="1.0" xmlns="http://www.w3.org/2000/svg"
 width="512.000000pt" height="512.000000pt" viewBox="0 0 512.000000 512.000000"
 preserveAspectRatio="xMidYMid meet">
<metadata>
Created by potrace 1.11, written by Peter Selinger 2001-2013
</metadata>
<g transform="translate(0.000000,512.000000) scale(0.100000,-0.100000)"
fill="#000000" stroke="none">
<path d="M743 5062 c-58 -70 -76 -94 -151 -197 -52 -72 -64 -82 -113 -99 -50
-18 -140 -63 -265 -132 -28 -16 -88 -56 -133 -89 -61 -45 -81 -66 -81 -83 0
-22 4 -20 63 26 105 83 179 129 310 192 69 33 128 60 132 60 3 0 -19 -39 -49
-88 -194 -312 -296 -620 -296 -888 0 -76 43 -290 70 -349 5 -11 25 -54 43 -95
67 -147 205 -301 342 -382 59 -35 161 -84 221 -107 25 -10 38 -26 62 -79 66
-146 97 -228 137 -367 46 -163 53 -208 65 -459 5 -105 13 -211 19 -236 5 -25
12 -63 15 -84 9 -58 33 -121 72 -197 38 -72 112 -168 131 -168 6 -1 13 -4 15
-9 11 -25 225 -152 257 -152 6 0 19 -4 29 -9 9 -5 24 -12 33 -14 13 -4 18 -25
23 -89 13 -158 41 -373 75 -578 6 -30 22 -130 37 -222 28 -166 29 -168 54
-168 22 0 31 13 73 95 51 99 124 216 173 274 74 89 95 110 187 183 100 79 126
96 90 56 -11 -13 -30 -34 -42 -48 -52 -58 -100 -142 -107 -187 -8 -56 7 -141
48 -275 21 -67 35 -98 45 -98 10 0 13 6 8 17 -46 121 -85 272 -85 333 0 67 43
132 173 263 163 166 200 190 322 215 55 11 107 23 116 26 11 5 30 -17 73 -85
l58 -92 3 -176 c3 -158 32 -435 51 -484 3 -9 13 -17 21 -17 12 0 14 8 9 37
-30 178 -46 310 -51 433 -7 128 -6 143 8 132 29 -25 84 -157 97 -234 14 -85
34 -97 24 -15 -14 122 -44 192 -163 381 -45 70 -81 129 -79 130 2 2 79 28 172
60 93 32 221 80 285 107 118 51 364 176 413 210 14 11 31 19 36 19 15 0 154
113 177 144 11 14 22 26 26 26 3 0 9 -47 12 -103 6 -101 19 -180 38 -242 6
-21 4 -55 -6 -105 -44 -231 -175 -498 -428 -874 -62 -93 -70 -117 -32 -102 24
9 209 300 301 472 79 149 139 290 174 412 26 91 32 131 37 265 4 105 3 157 -4
157 -14 0 -23 -48 -23 -119 -1 -42 -3 -52 -10 -39 -14 24 -29 211 -18 223 5 6
35 10 67 10 53 0 61 -3 108 -43 28 -23 68 -68 89 -100 21 -31 47 -66 57 -77
19 -19 181 -260 203 -300 117 -217 118 -220 131 -305 51 -338 53 -437 9 -515
-22 -40 -23 -45 -7 -45 22 0 46 50 62 129 14 64 9 128 -31 399 -16 108 -23
131 -58 190 -22 37 -61 108 -87 157 -26 50 -65 116 -86 147 -22 31 -39 59 -39
62 0 10 96 -30 287 -119 88 -42 206 -115 306 -191 44 -34 47 -35 47 -14 0 24
-20 43 -91 90 l-45 31 -2 117 c-4 202 -47 726 -64 772 -7 19 -11 21 -18 10 -5
-8 -7 -17 -5 -20 5 -8 32 -320 44 -505 6 -88 13 -204 17 -257 l6 -98 -64 36
c-82 47 -212 111 -263 130 -22 8 -71 26 -109 40 -68 23 -106 48 -106 67 0 5
-13 26 -28 46 -19 24 -32 58 -40 102 -19 105 -16 146 13 177 14 15 35 46 46
70 12 23 29 47 40 52 10 6 26 33 36 60 16 46 20 50 51 50 50 0 182 29 222 48
72 35 190 124 247 186 77 84 115 159 111 217 l-3 44 -14 -40 c-21 -60 -88
-164 -140 -218 -117 -122 -249 -194 -390 -212 l-54 -7 6 68 c4 38 7 82 7 97 0
27 2 28 36 21 82 -15 254 34 324 93 41 34 38 50 -3 19 -67 -51 -181 -85 -288
-86 l-67 0 -7 58 c-3 31 -11 74 -17 95 -9 28 -8 44 2 65 7 15 14 68 15 118 1
50 5 96 9 102 14 22 71 13 114 -18 102 -74 97 -183 -14 -292 -65 -65 -37 -61
31 3 67 63 90 118 82 191 -6 43 -13 59 -49 95 -39 40 -89 62 -126 54 -22 -4
15 52 87 130 l64 70 19 -31 c20 -34 71 -60 115 -60 31 0 93 34 93 50 0 14 -7
13 -36 -6 -37 -25 -112 -14 -141 21 -33 38 -29 52 24 85 63 40 107 53 159 47
47 -5 57 5 23 24 -31 16 -100 6 -163 -25 -68 -33 -180 -143 -243 -239 -56 -87
-55 -85 -60 -69 -3 6 -9 12 -15 12 -6 0 -7 -35 -3 -97 3 -54 2 -111 -3 -127
-8 -29 -8 -29 -37 30 -18 37 -55 85 -99 128 -62 61 -71 67 -74 48 -3 -17 -10
-22 -35 -22 -44 0 -107 19 -138 41 -28 20 -47 15 -25 -7 37 -37 96 -56 157
-52 57 4 62 3 85 -25 33 -39 56 -87 84 -171 21 -60 22 -71 9 -90 -34 -52 -69
-131 -69 -155 l0 -26 18 22 c20 25 67 22 81 -6 8 -17 -2 -157 -12 -168 -8 -8
-113 35 -128 53 -17 21 -25 17 -35 -16 -11 -38 -70 -120 -159 -224 -126 -145
-179 -197 -255 -250 -68 -48 -284 -176 -296 -176 -3 0 -48 -20 -101 -45 -52
-25 -99 -45 -103 -45 -4 0 -32 -11 -62 -24 -64 -28 -357 -127 -443 -149 -238
-62 -361 -67 -514 -23 -51 15 -103 33 -115 40 -11 8 -86 35 -166 61 -373 122
-511 174 -572 216 -14 11 -30 19 -35 19 -13 0 -82 60 -132 113 -121 129 -173
308 -191 660 -6 104 -13 207 -16 230 -11 74 -62 270 -83 320 -12 27 -21 53
-21 58 0 6 -10 31 -21 57 -12 26 -34 75 -50 109 l-27 61 29 -10 c40 -14 61 -4
24 12 -16 6 -43 18 -60 25 -16 7 -61 25 -99 40 -181 74 -349 213 -447 370 -39
63 -97 196 -121 282 -20 68 -23 102 -23 258 0 207 19 307 94 493 69 172 249
486 284 496 117 33 251 66 292 71 80 10 99 15 89 25 -10 10 -183 -16 -290 -44
-34 -9 -67 -16 -73 -16 -12 0 98 156 171 241 26 31 48 59 48 63 0 3 -9 6 -20
6 -11 0 -39 -23 -67 -58z m3714 -2904 c-3 -8 -6 -5 -6 6 -1 11 2 17 5 13 3 -3
4 -12 1 -19z m42 -248 c1 -110 -5 -150 -21 -150 -6 0 -8 14 -4 34 8 42 9 208
2 274 l-5 47 13 -50 c8 -27 14 -97 15 -155z m-50 81 c1 -20 -2 -22 -26 -16
-16 4 -29 8 -31 10 -2 2 7 23 19 47 l23 43 7 -30 c4 -16 7 -41 8 -54z m-95
-236 c27 -14 55 -25 63 -25 7 0 13 -8 13 -17 -1 -31 -46 -150 -71 -184 l-23
-33 -7 25 c-3 14 -9 59 -13 100 -7 72 -19 110 -31 98 -3 -3 0 -52 6 -109 5
-57 8 -114 4 -127 -3 -13 -1 -23 4 -23 4 0 11 -23 15 -51 4 -29 10 -66 13 -83
6 -31 6 -31 -53 24 -32 30 -59 60 -59 65 -8 100 -19 175 -26 175 -17 0 -8 15
46 83 30 38 55 77 55 88 0 24 5 24 64 -6z m113 -70 c-6 -19 -12 -33 -14 -32
-6 7 9 67 17 67 5 0 3 -16 -3 -35z m-293 -142 c3 -21 8 -58 11 -83 l7 -45 -71
-2 c-63 -1 -71 1 -71 17 0 17 98 149 112 150 3 0 9 -17 12 -37z m-2299 -543
c76 -23 141 -43 144 -45 2 -3 8 -51 12 -107 10 -125 29 -262 40 -280 17 -26
18 1 5 88 -16 96 -37 287 -33 291 2 1 30 -6 62 -16 l60 -19 22 -178 c12 -99
22 -186 22 -194 1 -8 -21 -37 -47 -65 -55 -57 -162 -189 -162 -199 0 -4 -11
-22 -24 -39 -12 -18 -40 -67 -62 -110 -21 -43 -41 -80 -44 -82 -9 -6 -85 458
-124 755 -23 175 -28 240 -19 240 4 0 71 -18 148 -40z m390 -139 c28 -13 60
-27 72 -31 21 -9 23 -15 39 -131 l6 -47 -49 -33 c-26 -18 -57 -41 -67 -51 -11
-10 -22 -18 -26 -18 -5 0 -20 111 -37 279 -3 37 -2 62 3 59 5 -2 32 -14 59
-27z m183 -57 c19 -6 22 -11 16 -40 -4 -20 -2 -34 4 -34 12 0 22 24 22 51 0
16 7 19 48 19 43 -1 45 -2 28 -15 -10 -8 -32 -27 -50 -42 -17 -16 -50 -39 -73
-51 l-43 -22 0 39 c0 21 -3 53 -6 70 -7 33 3 38 54 25z"/>
<path d="M4250 5116 c0 -3 14 -20 31 -38 43 -47 133 -166 160 -213 43 -75 81
-150 67 -134 -98 118 -170 170 -402 293 -38 20 -73 36 -78 36 -19 0 4 -20 55
-48 120 -66 155 -87 222 -131 132 -86 207 -172 282 -324 64 -130 147 -408 213
-717 24 -111 60 -438 60 -541 0 -35 -15 -37 -73 -8 -104 53 -218 156 -308 279
-34 45 -89 149 -89 166 0 16 -17 27 -24 16 -7 -12 46 -121 95 -194 90 -133
277 -291 360 -304 l39 -7 -1 -106 c-1 -58 -4 -130 -7 -160 l-7 -53 -75 -19
c-41 -11 -79 -24 -84 -29 -6 -6 -19 -10 -31 -10 -12 0 -27 -12 -37 -30 -19
-34 -95 -85 -148 -100 -106 -31 -253 -18 -366 34 -62 29 -141 104 -167 159
-24 51 -40 38 -19 -16 27 -67 117 -149 204 -185 179 -75 354 -54 481 57 177
153 401 129 495 -54 l21 -40 1 38 c0 60 -59 132 -142 170 -42 20 -41 16 -28
107 16 105 13 497 -4 655 -48 422 -139 761 -287 1060 -73 146 -94 184 -173
303 l-61 92 -58 0 c-44 0 -56 -3 -51 -12 6 -10 4 -10 -7 0 -12 11 -59 18 -59
8z m240 -181 c0 -5 -5 -3 -10 5 -5 8 -10 20 -10 25 0 6 5 3 10 -5 5 -8 10 -19
10 -25z m0 -29 c0 -3 -4 -8 -10 -11 -5 -3 -10 -1 -10 4 0 6 5 11 10 11 6 0 10
-2 10 -4z m80 -97 c0 -6 -4 -7 -10 -4 -5 3 -10 11 -10 16 0 6 5 7 10 4 6 -3
10 -11 10 -16z m-20 -30 c0 -6 -4 -7 -10 -4 -5 3 -10 11 -10 16 0 6 5 7 10 4
6 -3 10 -11 10 -16z m91 -184 c5 3 6 -1 2 -10 -5 -13 -7 -14 -14 -3 -5 7 -8
20 -8 28 1 11 3 10 6 -3 2 -9 9 -15 14 -12z m39 -89 c0 -3 -4 -8 -10 -11 -5
-3 -10 -1 -10 4 0 6 5 11 10 11 6 0 10 -2 10 -4z m97 -268 c-3 -7 -5 -2 -5 12
0 14 2 19 5 13 2 -7 2 -19 0 -25z m10 -120 c-3 -8 -6 -5 -6 6 -1 11 2 17 5 13
3 -3 4 -12 1 -19z m50 -185 c-3 -10 -5 -4 -5 12 0 17 2 24 5 18 2 -7 2 -21 0
-30z m18 -63 c3 -5 1 -10 -4 -10 -6 0 -11 5 -11 10 0 6 2 10 4 10 3 0 8 -4 11
-10z m29 -199 c-6 -7 -11 2 -17 34 l-6 30 13 -30 c8 -16 12 -32 10 -34z m16
-43 c0 -19 -2 -20 -10 -8 -13 19 -13 30 0 30 6 0 10 -10 10 -22z m8 -128 c0
-16 -3 -11 -9 15 -4 22 -8 51 -7 65 0 16 3 11 9 -15 4 -22 8 -51 7 -65z m10
-138 c2 -59 0 -82 -7 -72 -14 21 -13 160 2 160 1 0 3 -39 5 -88z m-7 -307 c-8
-37 -9 -34 -9 35 -1 41 2 93 6 115 6 35 7 30 10 -35 1 -41 -1 -93 -7 -115z
m-4 -121 c-3 -3 -12 -4 -19 -1 -8 3 -5 6 6 6 11 1 17 -2 13 -5z"/>
<path d="M2377 4923 c-10 -15 -26 -127 -37 -253 -16 -171 1 -388 46 -610 34
-164 124 -433 181 -540 48 -91 127 -207 153 -227 26 -19 2 -28 -79 -28 -73 0
-84 3 -172 47 -52 25 -114 65 -138 87 -24 23 -46 41 -48 41 -10 0 0 -46 15
-68 11 -15 38 -63 62 -107 23 -44 53 -96 66 -115 13 -19 24 -38 24 -41 0 -14
-67 -30 -145 -36 -82 -5 -260 18 -279 37 -6 6 -19 10 -29 10 -11 0 -54 17 -96
37 -105 51 -233 178 -284 282 -21 40 -37 84 -37 97 0 15 -6 24 -15 24 -21 0
-19 -19 10 -96 41 -109 123 -212 234 -292 49 -36 53 -33 -74 -51 -68 -10 -84
-6 -85 22 0 10 7 9 30 -5 16 -10 23 -10 36 3 14 15 13 22 -16 83 -30 63 -50
83 -50 51 0 -9 11 -38 25 -65 14 -28 22 -50 18 -50 -10 0 -68 54 -87 82 -24
34 -32 12 -13 -39 16 -42 16 -48 2 -55 -8 -5 -15 -20 -15 -33 l0 -23 -50 16
c-35 11 -50 21 -52 36 -2 15 -15 23 -47 31 -59 14 -107 71 -176 210 -30 61
-55 114 -55 119 0 24 -53 176 -61 176 -14 0 17 -221 38 -277 3 -9 -3 -13 -20
-13 -14 0 -28 -4 -31 -9 -4 -5 -13 -74 -21 -153 -21 -204 -27 -248 -34 -248
-11 0 -142 79 -184 112 -38 28 -131 121 -165 162 -21 26 -72 127 -72 142 0 8
-6 25 -14 37 -30 48 -41 131 -41 310 0 97 -3 177 -6 177 -14 0 -19 -51 -19
-201 0 -117 5 -180 19 -250 56 -265 160 -449 327 -575 89 -67 144 -81 241 -64
36 6 68 9 70 6 3 -3 -7 -55 -23 -116 -25 -100 -26 -112 -12 -126 30 -30 53 -3
72 83 10 43 25 101 34 128 l17 50 90 8 c50 5 97 12 105 16 20 11 24 39 9 58
-11 13 -28 15 -96 10 -46 -3 -83 -2 -83 2 0 4 6 28 13 52 8 25 12 55 10 67 -2
19 2 22 35 24 60 3 74 2 132 -14 l55 -15 11 -134 c6 -74 14 -144 18 -156 9
-28 35 -37 56 -18 13 12 43 15 131 15 80 0 121 4 133 13 17 12 18 27 14 164
l-4 150 58 -18 c101 -30 257 -44 334 -30 74 13 144 45 144 64 0 7 -27 57 -61
110 -34 54 -59 101 -56 104 3 3 18 -4 34 -15 67 -48 206 -84 286 -75 51 6 52
5 47 -59 -1 -15 6 -125 14 -245 9 -120 23 -346 31 -503 9 -157 18 -291 20
-297 3 -7 13 -13 23 -13 41 0 43 16 32 247 -5 120 -13 248 -16 286 l-6 67 27
0 c50 0 108 24 146 60 75 71 61 145 -39 210 l-23 15 31 42 c42 58 49 102 20
148 -31 50 -90 78 -169 81 l-64 1 -48 62 c-84 108 -173 301 -234 504 -29 97
-29 126 0 50 35 -91 93 -187 186 -308 68 -88 160 -163 274 -225 33 -18 65 -36
70 -40 6 -4 25 -11 43 -15 17 -3 32 -11 32 -16 0 -6 15 -9 33 -7 24 2 33 8 35
26 6 40 19 23 26 -35 14 -116 19 -106 -54 -118 -80 -13 -90 -19 -90 -51 l0
-26 103 7 c56 4 152 11 212 16 61 5 158 9 216 9 114 0 137 9 124 49 -9 29 -36
33 -169 29 -127 -3 -127 -3 -102 56 l14 33 73 -25 c51 -17 103 -27 169 -30
l95 -4 76 -73 c42 -40 88 -79 101 -86 14 -8 43 -24 64 -35 52 -29 174 -69 254
-85 36 -6 124 -12 195 -12 144 0 218 15 270 57 37 30 27 46 -12 19 -87 -61
-366 -59 -573 3 -109 33 -188 80 -294 177 l-41 37 31 0 c17 0 37 7 44 15 7 8
11 15 9 15 -2 0 -67 2 -144 4 -167 5 -305 34 -305 65 0 10 49 21 90 21 32 0
63 30 54 54 -7 19 -10 20 -154 16 l-116 -2 -19 42 c-38 84 -73 130 -99 130
-37 0 -37 -27 1 -102 20 -42 29 -69 22 -73 -17 -11 -117 57 -187 127 -56 57
-133 159 -145 193 -3 5 -8 7 -12 3 -9 -8 103 -224 152 -291 32 -46 33 -50 16
-63 -31 -23 -62 -16 -136 32 -93 60 -217 181 -271 264 -70 108 -121 202 -145
265 -13 33 -27 68 -33 79 -18 33 -58 177 -75 270 -20 111 -23 429 -4 555 11
77 11 105 -2 84z m754 -1513 c5 0 9 -4 9 -10 0 -5 -11 -10 -24 -10 -17 0 -34
13 -55 42 -44 60 -38 66 15 19 26 -23 51 -41 55 -41z m-1821 -174 c22 -29 40
-56 40 -59 0 -4 -15 -7 -34 -7 l-33 0 -42 116 c-50 141 -52 175 -5 76 19 -41
52 -97 74 -126z m-86 20 c33 -88 33 -96 -4 -96 l-30 0 0 87 c0 47 2 84 4 82 2
-2 16 -35 30 -73z m2103 61 l42 -12 -18 -40 c-11 -22 -24 -52 -30 -67 -6 -17
-18 -28 -30 -28 -25 0 -30 9 -46 73 -7 29 -16 60 -20 70 -6 14 -2 17 26 17 19
0 53 -6 76 -13z m-207 -1 c0 -3 -4 -8 -10 -11 -5 -3 -10 -1 -10 4 0 6 5 11 10
11 6 0 10 -2 10 -4z m-2350 -156 c92 -92 189 -162 265 -192 35 -14 40 -20 43
-52 3 -30 0 -36 -17 -36 -11 0 -24 -8 -30 -17 -8 -15 -13 -14 -52 12 -111 77
-201 182 -267 312 -37 72 -41 90 -9 48 12 -16 42 -50 67 -75z m2105 41 c52
-23 69 -44 61 -75 -13 -54 -125 -131 -126 -87 0 9 -5 49 -10 90 -5 40 -7 77
-4 82 8 14 35 10 79 -10z m-1575 -132 c0 -6 -9 -42 -21 -79 -19 -64 -22 -68
-55 -75 -20 -3 -42 -9 -50 -12 -8 -3 -14 1 -14 11 0 9 11 21 25 26 30 11 34
30 5 23 -22 -6 -26 15 -14 75 5 25 12 32 38 35 63 8 86 7 86 -4z m576 -110 c5
-61 6 -113 2 -115 -4 -3 -52 -7 -106 -11 l-98 -6 -11 104 c-7 57 -10 105 -8
108 3 2 48 9 102 16 54 7 101 13 104 14 3 0 10 -49 15 -110z m1039 -22 c32
-16 65 -49 65 -66 -1 -39 -71 -84 -123 -79 l-32 3 -3 83 -3 83 38 -7 c21 -4
47 -11 58 -17z"/>
<path d="M3253 4703 c-15 -53 -8 -304 11 -408 80 -440 344 -847 636 -982 61
-28 148 -44 136 -24 -4 6 -17 11 -29 11 -31 0 -137 52 -200 98 -234 173 -429
506 -505 862 -40 188 -50 350 -26 445 9 35 -14 32 -23 -2z"/>
<path d="M3480 4270 c0 -47 73 -216 151 -348 72 -121 153 -225 252 -319 124
-119 233 -182 338 -198 95 -14 91 -40 -9 -53 -36 -5 -89 -5 -125 0 -62 10
-189 49 -239 74 -32 17 -52 18 -43 3 11 -16 114 -63 185 -83 36 -10 78 -22 94
-27 94 -29 236 16 236 74 0 11 -3 17 -7 14 -3 -4 -11 -3 -17 2 -6 5 -35 14
-65 20 -106 22 -179 64 -300 171 -168 147 -374 460 -423 643 -12 48 -28 63
-28 27z"/>
<path d="M2750 4186 c0 -1 5 -17 11 -35 10 -29 29 -43 29 -22 0 20 -20 61 -30
61 -5 0 -10 -2 -10 -4z"/>
<path d="M2590 4147 c0 -37 23 -77 34 -59 3 6 2 13 -4 17 -5 3 -10 22 -10 41
0 19 -4 34 -10 34 -5 0 -10 -15 -10 -33z"/>
<path d="M2660 4162 c0 -21 26 -60 34 -51 7 7 -16 69 -26 69 -4 0 -8 -8 -8
-18z"/>
<path d="M1900 4043 c0 -29 12 -63 21 -63 10 0 12 41 3 64 -8 21 -24 20 -24
-1z"/>
<path d="M1973 4046 c4 -10 7 -24 7 -32 0 -8 6 -14 14 -14 18 0 6 52 -14 58
-9 3 -11 -1 -7 -12z"/>
<path d="M1196 4005 c-9 -24 -7 -75 3 -75 12 0 22 73 12 83 -5 5 -11 1 -15 -8z"/>
<path d="M1235 3987 c-8 -31 -4 -59 10 -64 11 -3 14 72 3 83 -4 3 -10 -5 -13
-19z"/>
<path d="M2773 3995 c-82 -18 -149 -48 -162 -73 -14 -26 4 -40 17 -15 8 14 13
15 26 4 13 -11 45 -11 173 -2 87 7 184 19 216 26 32 8 99 15 148 15 53 0 89 4
89 10 0 6 -25 10 -55 10 -36 0 -65 6 -82 18 -36 23 -278 28 -370 7z m307 -14
l45 -7 -65 -12 c-109 -20 -261 -33 -335 -30 l-70 3 60 19 c92 30 269 43 365
27z"/>
<path d="M896 3984 c-12 -32 -4 -104 13 -104 3 0 6 27 7 60 1 58 -7 77 -20 44z"/>
<path d="M1320 3971 c0 -20 17 -37 27 -28 7 8 -7 47 -18 47 -5 0 -9 -9 -9 -19z"/>
<path d="M727 3953 c-11 -10 -8 -83 3 -83 6 0 10 20 10 45 0 46 -2 50 -13 38z"/>
<path d="M785 3921 c-4 -23 -2 -48 4 -58 6 -10 11 -16 11 -13 1 3 3 29 6 58 6
61 -11 71 -21 13z"/>
<path d="M296 3925 c-12 -33 -18 -115 -8 -115 10 0 14 14 28 93 6 37 -8 53
-20 22z"/>
<path d="M352 3863 c2 -31 8 -58 13 -60 6 -2 9 20 7 57 -2 33 -8 60 -13 60 -6
0 -9 -25 -7 -57z"/>
<path d="M5090 3878 c0 -13 7 -45 14 -73 l14 -50 1 41 c1 52 -9 104 -20 104
-5 0 -9 -10 -9 -22z"/>
<path d="M1095 3780 c-101 -21 -245 -92 -245 -120 0 -15 8 -12 40 12 28 20 39
22 182 19 95 -1 189 4 248 13 52 8 116 12 143 9 28 -3 47 -2 47 4 0 16 -85 23
-163 14 -109 -14 -367 -23 -367 -13 0 4 35 17 78 28 58 14 112 19 219 19 95 0
139 3 132 10 -12 13 -260 17 -314 5z"/>
<path d="M3528 3077 c-9 -10 -57 -16 -153 -21 -186 -9 -204 -12 -216 -45 -12
-31 -1 -317 13 -343 11 -22 31 -23 48 -3 9 11 33 15 86 15 63 0 72 -2 67 -16
-3 -8 -6 -37 -7 -62 l-1 -47 -122 -6 c-211 -11 -274 -19 -280 -36 -4 -9 2 -22
13 -30 15 -11 58 -14 209 -12 l190 2 6 -89 c4 -49 7 -137 8 -196 1 -119 11
-158 40 -158 43 0 45 18 32 236 -7 113 -12 207 -10 208 2 2 81 9 174 15 94 6
187 16 208 22 34 9 38 13 35 37 -3 27 -4 27 -83 27 -44 0 -139 -4 -211 -9
l-132 -8 -10 58 c-5 33 -9 60 -8 61 0 0 31 4 67 8 l66 7 7 -28 c12 -48 60 -62
75 -21 19 54 -24 361 -60 429 -11 21 -32 23 -51 5z m6 -104 c3 -21 6 -52 6
-69 l0 -31 -132 -6 c-73 -4 -145 -10 -160 -13 -26 -6 -26 -5 -30 56 -1 34 1
64 5 67 4 2 68 8 143 12 74 5 137 11 141 14 13 14 21 6 27 -30z m24 -186 c2
-16 -2 -29 -10 -31 -7 -3 -82 -6 -165 -8 -152 -4 -153 -4 -153 18 0 27 22 33
120 35 41 0 98 4 125 9 71 11 80 8 83 -23z"/>
<path d="M1323 2829 c-12 -12 -7 -39 9 -39 5 0 47 -25 94 -56 93 -61 128 -66
122 -16 -2 19 -16 33 -53 54 -101 58 -154 75 -172 57z"/>
<path d="M3990 2719 c0 -8 17 -31 38 -51 97 -96 286 -121 421 -56 51 24 71 41
71 58 0 6 -15 0 -32 -13 -18 -14 -43 -28 -55 -31 -145 -44 -318 -14 -405 72
-24 23 -38 31 -38 21z"/>
<path d="M1785 2671 c-6 -6 -82 -15 -170 -20 -88 -6 -178 -13 -199 -17 l-39
-7 7 -234 c4 -131 12 -246 18 -259 12 -27 30 -31 50 -11 9 9 71 12 226 14 118
1 217 4 220 8 23 23 -20 421 -53 503 -14 32 -41 42 -60 23z m4 -100 c13 -24
47 -339 37 -348 -4 -4 -88 -9 -186 -11 l-180 -4 0 28 c0 16 -3 53 -6 82 l-7
52 137 0 c137 0 176 8 176 35 0 28 -38 35 -177 33 l-138 -3 -3 72 -3 72 158 4
c87 1 163 4 170 5 7 1 17 -7 22 -17z"/>
<path d="M4975 2630 c-3 -5 -1 -10 4 -10 6 0 11 5 11 10 0 6 -2 10 -4 10 -3 0
-8 -4 -11 -10z"/>
<path d="M5048 2491 c4 -82 -1 -114 -34 -230 -5 -16 -4 -22 4 -17 36 22 70
233 49 309 -14 52 -22 27 -19 -62z"/>
<path d="M4100 2561 c0 -32 187 -80 204 -52 5 7 -3 11 -23 11 -26 0 -114 24
-163 45 -11 4 -18 3 -18 -4z"/>
<path d="M2286 2309 c-38 -5 -72 -11 -74 -14 -13 -12 9 -14 64 -5 32 6 87 10
122 10 34 0 62 4 62 10 0 12 -76 11 -174 -1z"/>
<path d="M2260 2240 c0 -12 127 -12 155 0 13 6 -9 9 -67 9 -53 1 -88 -3 -88
-9z"/>
<path d="M4990 2210 c0 -5 5 -10 10 -10 6 0 10 5 10 10 0 6 -4 10 -10 10 -5 0
-10 -4 -10 -10z"/>
<path d="M2370 2200 c-58 -4 -120 -8 -137 -9 -18 0 -33 -6 -33 -12 0 -7 25 -9
78 -5 42 4 110 9 150 12 39 3 70 10 66 15 -3 5 -8 8 -12 7 -4 -1 -54 -5 -112
-8z"/>
<path d="M2303 2121 c-119 -8 -213 -19 -213 -24 0 -10 30 -8 332 12 88 5 122
13 101 23 -4 2 -104 -3 -220 -11z"/>
<path d="M2470 2050 c0 -6 27 -10 60 -10 33 0 60 4 60 10 0 6 -27 10 -60 10
-33 0 -60 -4 -60 -10z"/>
<path d="M2228 2032 c-93 -9 -168 -19 -168 -24 0 -12 68 -10 215 7 72 8 136
15 143 15 6 0 12 5 12 10 0 6 -8 9 -17 9 -10 -1 -93 -9 -185 -17z"/>
<path d="M4696 1702 c-3 -5 -1 -24 4 -43 22 -80 57 -373 72 -603 2 -22 9 -41
17 -44 18 -6 8 168 -25 418 -30 230 -48 304 -68 272z"/>
<path d="M4614 1663 c3 -21 8 -69 11 -108 4 -38 13 -131 21 -205 14 -124 24
-165 36 -143 6 11 -38 469 -47 482 -15 24 -27 9 -21 -26z"/>
<path d="M2250 1280 c0 -6 43 -10 110 -10 67 0 110 4 110 10 0 6 -43 10 -110
10 -67 0 -110 -4 -110 -10z"/>
</g>
</svg>
